<?xml version="1.0" standalone="no"?>
<!DOCTYPE svg PUBLIC "-//W3C//DTD SVG 20010904//EN"
 "http://www.w3.org/TR/2001/REC-SVG-20010904/DTD/svg10.dtd">
<svg version="1.0" xmlns="http://www.w3.org/2000/svg"
 width="256.000000pt" height="256.000000pt" viewBox="0 0 256.000000 256.000000"
 preserveAspectRatio="xMidYMid meet">

<g transform="translate(0.000000,256.000000) scale(0.100000,-0.100000)"
fill="#000000" stroke="none">
<path d="M1235 2551 c-43 -11 -65 -23 -555 -306 -245 -141 -460 -270 -477
-288 -59 -55 -58 -49 -58 -682 0 -574 0 -581 22 -627 16 -34 35 -56 75 -81 97
-64 932 -541 968 -554 45 -16 95 -16 141 1 36 13 900 507 977 558 23 16 52 48
65 71 22 42 22 43 25 615 2 373 -1 586 -8 611 -21 79 -60 106 -530 377 -245
141 -466 267 -492 280 -53 27 -110 36 -153 25z m240 -536 c87 -23 210 -87 285
-148 64 -52 170 -178 170 -202 0 -7 -72 -54 -160 -104 l-161 -91 -54 58 c-32
34 -77 70 -112 87 -53 28 -67 30 -163 30 -95 0 -110 -3 -160 -28 -73 -37 -141
-106 -176 -176 -36 -73 -45 -194 -20 -273 36 -111 126 -205 236 -243 26 -9 77
-16 120 -16 43 0 94 7 120 16 64 22 143 79 175 126 15 21 32 39 37 39 5 0 81
-41 168 -92 l159 -92 -17 -29 c-29 -48 -109 -138 -164 -184 -71 -58 -187 -117
-284 -144 -111 -32 -277 -32 -388 0 -243 68 -443 251 -521 478 -155 444 124
919 587 1003 72 12 249 4 323 -15z m555 -585 c0 -28 2 -30 40 -30 38 0 40 2
40 30 0 28 2 30 40 30 38 0 40 -2 40 -30 0 -27 3 -30 30 -30 28 0 30 -2 30
-40 0 -38 -2 -40 -30 -40 -29 0 -30 -2 -30 -45 0 -43 1 -45 30 -45 28 0 30 -3
30 -35 0 -32 -2 -35 -30 -35 -28 0 -30 -3 -30 -36 0 -35 -1 -35 -37 -32 -35 3
-38 6 -41 36 -3 30 -6 32 -42 32 -36 0 -39 -2 -42 -32 -3 -30 -6 -33 -40 -36
-35 -3 -37 -2 -40 30 -2 28 -7 34 -30 36 -25 3 -28 8 -28 38 0 31 2 34 30 34
29 0 30 2 30 45 0 43 -1 45 -30 45 -28 0 -30 2 -30 40 0 38 2 40 30 40 27 0
30 3 30 30 0 28 2 30 40 30 38 0 40 -2 40 -30z"/>
<path d="M2030 1275 l0 -45 40 0 40 0 0 45 0 45 -40 0 -40 0 0 -45z"/>
</g>
</svg>
